<?xml version="1.0" encoding="UTF-8" standalone="no"?>
<svg
   id="svg"
   version="1.1"
   width="1024"
   height="1024"
   viewBox="0 0 1024 1024"
   xmlns="http://www.w3.org/2000/svg"
   xmlns:svg="http://www.w3.org/2000/svg">
  <g
     id="g1"
     transform="matrix(1.5025388,0,0,1.5025388,211.96173,448.0446)">
    <g
       id="path32"
       style="opacity:1">
      <path
         style="baseline-shift:baseline;display:inline;overflow:visible;vector-effect:none;fill-rule:evenodd;enable-background:accumulate;stop-color:#000000;stop-opacity:1"
         d="m 386.94336,0.9375 c -6.81968,3.16e-6 -12.40625,5.505268 -12.40625,12.277344 0,6.772076 5.58657,12.279293 12.40625,12.279297 6.81969,3e-6 12.40625,-5.507217 12.40625,-12.279297 0,-6.7720804 -5.58656,-12.27734716 -12.40625,-12.277344 z m 0,3.4785156 c 4.96135,-2.3e-6 8.92578,3.9301431 8.92578,8.7988284 0,4.868685 -3.96443,8.79883 -8.92578,8.798828 -4.96135,-2e-6 -8.92578,-3.930146 -8.92578,-8.798828 0,-4.868682 3.96443,-8.7988261 8.92578,-8.7988284 z"
         id="path56" />
    </g>
    <g
       id="text36"
       style="opacity:1">
      <path
         style="font-size:14.897px;font-family:'Microsoft Sans Serif';-inkscape-font-specification:'Microsoft Sans Serif, Normal';baseline-shift:baseline;display:inline;overflow:visible;vector-effect:none;fill-rule:evenodd;enable-background:accumulate;stop-color:#000000;stop-opacity:1"
         d="m 391.85174,18.50136 h -1.52752 l -1.0038,-2.844105 q -0.26914,-0.756488 -0.8947,-1.236568 -0.62555,-0.480079 -1.44023,-0.480079 h -2.61134 V 18.50136 H 382.963 V 7.8377845 h 4.72078 q 1.23657,0 2.02215,0.2400396 0.78559,0.2400395 1.28021,1.0110757 0.49463,0.7710361 0.49463,1.7384682 0,1.105637 -0.6401,1.847577 -0.64011,0.741941 -1.75302,0.967432 v 0.0291 q 1.11291,0.356422 1.69482,1.92759 z m -7.47759,-5.826415 h 3.14961 q 1.31658,0 1.90576,-0.414614 0.59647,-0.414613 0.59647,-1.432963 0,-1.8184814 -2.28402,-1.8184814 h -3.36782 z"
         id="path53" />
      <path
         style="font-size:14.897px;font-family:'Microsoft Sans Serif';-inkscape-font-specification:'Microsoft Sans Serif, Normal';baseline-shift:baseline;display:inline;overflow:visible;vector-effect:none;fill-rule:evenodd;enable-background:accumulate;stop-color:#000000;stop-opacity:1"
         d="M 382.30469,7.1796875 V 19.160156 h 2.72656 v -4.5625 h 1.95508 c 0.41387,0 0.73147,0.109646 1.03906,0.345703 0.32077,0.246174 0.53559,0.539535 0.67578,0.933594 h -0.002 l 1.16015,3.283203 h 2.93555 l -1.39453,-3.789062 c -0.26275,-0.709433 -0.66525,-1.241682 -1.13281,-1.667969 0.36206,-0.198363 0.80511,-0.287999 1.07226,-0.597656 0.53234,-0.617029 0.79883,-1.413271 0.79883,-2.277344 0,-0.757096 -0.20232,-1.474453 -0.59961,-2.09375 -0.39847,-0.6211621 -0.96551,-1.0788734 -1.64062,-1.2851563 -0.616,-0.1882212 -1.34789,-0.2695312 -2.21485,-0.2695312 z m 1.3164,1.3164063 h 0.0957 v 4.7871092 0.04883 4.511719 h -0.0957 z m 5.03125,0.1113281 c 0.28303,0.036027 0.65826,0.03756 0.86133,0.099609 0.11167,0.034119 0.17769,0.1657503 0.27539,0.2207031 -0.30019,-0.2231043 -0.74398,-0.2350015 -1.13672,-0.3203121 z m 1.24024,0.4023437 c 0.18297,0.1253922 0.38562,0.1943974 0.53906,0.4335938 0.26222,0.4087511 0.39063,0.8519516 0.39063,1.3847656 0,0.395919 -0.17768,0.640663 -0.3125,0.919922 0.0945,-0.290216 0.17382,-0.591494 0.17382,-0.919922 0,-0.719789 -0.27822,-1.3800448 -0.79101,-1.8183594 z m -4.86133,0.65625 h 2.71094 c 0.67402,0 1.08929,0.1425621 1.30273,0.3125 0.21344,0.1699384 0.32227,0.3811904 0.32227,0.8496094 0,0.550432 -0.12217,0.760274 -0.3125,0.892578 h -0.002 l -0.002,0.002 c -0.20414,0.143658 -0.71869,0.294922 -1.52734,0.294922 h -2.49219 z m 5.38477,2.3632814 c -0.0416,0.06033 -0.0251,0.159826 -0.0742,0.216797 -0.0404,0.04681 -0.12802,0.05089 -0.17188,0.09375 0.079,-0.106823 0.18825,-0.18815 0.2461,-0.310547 z m -1.98633,1.091797 v 0.644531 c -0.40341,-0.225803 -0.82673,-0.409892 -1.29688,-0.433594 h 0.39063 c 0.37543,0 0.58976,-0.16164 0.90625,-0.210937 z m 0.90625,1.482422 c 0.30873,0.244263 0.59511,0.590209 0.83008,1.224609 l 0.74218,2.015625 h -0.11914 l -0.84765,-2.40625 h -0.002 c -0.1185,-0.333082 -0.39414,-0.558927 -0.60351,-0.833984 z"
         id="path54" />
    </g>
    <g
       id="text37"
       style="opacity:1"
       transform="scale(1.0031318,0.99687798)">
      <path
         style="font-size:122.507px;font-family:Vivaldi;-inkscape-font-specification:'Vivaldi, Normal';baseline-shift:baseline;display:inline;overflow:visible;vector-effect:none;fill:#f7770f;fill-rule:evenodd;enable-background:accumulate;stop-color:#000000;stop-opacity:1"
         d="m 116.9795,1.1702206 -0.35891,0.9570859 q -1.37581,4.1872511 -2.0338,6.6397839 l -1.6749,6.2808766 q 0,0.119636 -0.29909,1.13654 h -2.27308 l 0.23927,-0.837451 q 0.83745,-3.289983 0.83745,-4.845247 0,-2.0936258 -1.31599,-2.6918045 -1.25618,-0.5981788 -5.6827,-0.5981788 l -1.97399,0.059818 H 89.044555 l -0.239271,0.8972681 q -3.94798,15.5526472 -6.400513,20.4577122 -4.725612,9.331588 -13.339385,14.176836 -6.699602,3.768526 -13.399204,5.862152 7.656688,2.631986 19.141719,9.929767 7.89596,5.024701 10.228857,6.340694 6.221058,-7.836141 6.221058,-16.03119 0,-12.561753 -10.348492,-17.048094 h 21.115706 l -1.6749,6.460331 h -9.929764 q 5.323791,5.204155 5.323791,12.741207 0,7.477234 -6.819238,16.150825 l 1.076722,0.657997 q 8.015595,4.605976 12.083209,6.161241 4.06762,1.555265 7.95578,1.555265 8.01559,0 13.3992,-5.563063 5.38361,-5.563062 6.10143,-14.595561 2.33289,1.615083 2.33289,4.964884 0,3.349801 -3.52925,7.776323 -3.52926,4.366705 -8.79323,7.656688 l -6.99869,4.306887 q -4.0078,2.512351 -5.14434,2.512351 -2.93107,0 -10.587761,-3.230166 -7.656688,-3.230165 -13.877747,-7.058509 -6.400512,4.546159 -16.808822,7.357599 -10.348492,2.81144 -21.055892,2.81144 -20.397894,0 -32.062379,-8.494138 Q 1.3515533,65.474434 1.3515533,50.579784 q 0,-18.543541 19.2015377,-33.019466 Q 31.739033,9.1259977 43.3437,5.3574717 54.948367,1.5889457 69.603746,1.5889457 l 10.886853,0.059818 9.630678,-0.059818 12.920663,-0.1196358 12.7412,-0.2990893 z M 82.703861,7.2716436 H 69.843018 q -16.091008,0 -24.226239,1.435629 -8.075413,1.4356294 -16.210643,5.6826974 -9.929767,5.144338 -15.612465,14.296472 -5.682698,9.092317 -5.682698,19.739898 0,13.997382 10.40831,23.029881 9.869949,8.613774 28.41349,8.613774 18.722994,0 32.720376,-9.869949 -1.375811,-0.717815 -1.495447,-0.83745 L 65.117406,61.167547 q -6.75942,-4.247069 -15.373193,-6.998691 -8.553956,-2.81144 -14.954469,-2.81144 -3.469436,0 -7.417416,0.897268 2.871258,-3.170347 4.605976,-6.699602 1.555265,-0.418725 4.067616,-0.418725 2.332897,0 4.546158,0.29909 l 5.144337,0.717814 q 2.512351,0.358907 4.78543,0.358907 11.185942,0 19.201537,-8.553956 7.836141,-8.43432 12.980479,-30.6865684 z m 108.868529,27.3965854 -0.53836,1.076722 q -2.87126,5.981787 -5.62288,12.501936 l -0.53836,1.256175 -1.91418,-0.358907 q 1.43563,-4.007798 1.43563,-5.563063 0,-2.332897 -3.58907,-2.332897 -10.40831,0 -18.24445,16.689187 h 11.90376 l -0.95709,1.854354 h -11.78412 q -2.93108,4.964883 -2.93108,10.527946 0,3.349801 2.09363,5.443426 2.15344,2.093626 5.44342,2.093626 5.86216,0 10.52795,-5.323791 4.66579,-5.383609 5.98179,-13.578657 1.37581,1.615082 1.37581,4.067615 0,5.682698 -8.07541,13.21975 -7.53706,7.058509 -14.41611,7.058509 -4.06762,0 -6.52015,-2.452533 -2.45253,-2.51235 -2.45253,-6.699601 0,-1.674901 0.47854,-3.828344 -0.71781,0.657996 -0.77763,0.717814 l -3.88816,3.469437 q -9.63068,8.733409 -15.7321,8.733409 -2.9909,0 -5.02471,-1.555264 -2.0338,-1.615083 -2.0338,-3.94798 0,-1.555265 1.61508,-4.127433 1.97399,5.443426 8.25487,5.443426 4.96488,0 10.64758,-5.443426 5.74251,-5.503245 9.51104,-13.817929 h -11.66449 l 0.95709,-1.854354 h 11.60467 q 0.23927,-0.598179 0.3589,-0.897268 l 1.6749,-4.067615 q 2.27308,-5.742516 2.27308,-9.750314 0,-5.084519 -4.42652,-5.084519 -5.80233,0 -10.7074,6.101423 -4.90506,6.041605 -5.32379,13.698293 -1.55526,-1.854354 -1.55526,-4.605976 0,-6.400513 7.7165,-13.279568 7.77633,-6.879055 15.01429,-6.879055 6.28088,0 6.28088,7.178144 0,2.392715 -0.95709,5.981788 l 0.89727,-0.837451 q 7.65668,-7.058509 11.36539,-9.27177 3.70871,-2.213261 7.95578,-2.213261 1.91417,0 4.30689,0.657996 z m 34.63455,39.001254 1.07673,1.555264 q -6.28088,4.725612 -17.16773,7.417417 0.29909,-6.041606 7.11832,-20.81662 -7.7165,9.092316 -15.91155,15.074104 -8.13523,5.981787 -12.92066,5.981787 -4.18725,0 -4.18725,-5.323791 0,-9.032499 8.07541,-19.500626 8.07541,-10.527946 20.27826,-17.287366 13.75811,-7.716505 27.39659,-7.716505 1.91417,0 1.91417,1.435629 0,1.196357 -1.79454,4.546158 -4.06761,-0.717814 -7.89596,-0.717814 -18.24445,0 -31.40438,14.176836 -9.6905,10.408309 -9.6905,20.637166 0,4.78543 3.52926,4.78543 2.99089,0 8.61377,-5.144338 5.62288,-5.204154 10.0494,-12.023392 6.10143,-9.451224 8.31469,-19.620262 2.57217,1.555264 2.57217,5.742515 0,5.802334 -5.86215,13.339386 2.87125,-0.239271 7.11832,-1.6749 l -0.47854,1.016904 q -5.6827,12.741206 -5.6827,14.89465 0,1.734718 1.61508,1.615082 1.49545,-0.119635 5.32379,-2.392714 z m 49.28993,-41.154697 -8.43432,15.732101 h -2.09363 l 0.47855,-1.016904 q 2.09362,-4.546159 2.09362,-6.280877 0,-2.153443 -4.54616,-2.153443 -6.99869,0 -12.08321,5.921969 -4.84524,5.62288 -8.31468,13.459021 -3.40962,7.776324 -3.40962,13.100115 0,6.579966 6.04161,6.579966 5.14433,0 10.58776,-4.426523 5.44343,-4.426523 9.15213,-11.664485 l 1.55527,-2.990894 q 0.11964,-0.239271 0.53836,-1.016904 0.658,1.13654 0.658,2.332897 0,5.144337 -7.65669,12.561754 -11.30558,10.886853 -20.63717,10.886853 -7.95577,0 -7.95577,-8.972681 0,-7.716506 5.20415,-16.629369 5.20416,-8.912863 13.81793,-16.03119 11.54485,-9.511042 22.55134,-9.511042 0.71781,0 2.45253,0.119636 z m 36.66836,6.161241 q -3.17035,-0.299089 -5.26397,-0.299089 -15.7321,0 -24.10661,12.08321 -3.28998,4.78543 -5.56306,11.006488 -2.27308,6.161241 -2.27308,10.348493 0,2.931075 1.6749,4.845247 1.73472,1.854354 4.36671,1.854354 6.22106,0 13.75811,-9.989585 7.53705,-9.989584 7.53705,-18.304269 0,-1.854354 -1.0169,-3.110529 -0.95709,-1.315993 -2.3329,-1.315993 -4.78543,0 -9.15214,9.570859 -0.29908,-1.196357 -0.29908,-2.093625 0,-3.708708 4.60597,-7.776324 4.60598,-4.067615 8.73341,-4.067615 2.75162,0 4.6658,2.273079 1.91417,2.213262 1.91417,5.443427 0,10.827035 -13.81793,22.970063 -11.84394,10.527946 -19.68008,10.527946 -3.40962,0 -5.6827,-2.452533 -2.21326,-2.452533 -2.21326,-6.161241 0,-8.195049 5.6827,-17.107912 5.74251,-8.972681 15.0741,-15.433011 5.14434,-3.529255 11.18594,-5.802334 6.10143,-2.273079 10.3485,-2.273079 2.63198,0 2.63198,2.332897 0,0.897268 -0.77763,2.931076 z m 56.04934,35.172909 0.95709,1.555265 q -6.3407,4.546158 -15.0741,7.417416 0.95708,-13.040296 12.26266,-36.249631 l 1.73472,-3.708708 q 0.47854,-0.897268 0.47854,-1.495447 0,-1.435629 -1.25617,-1.435629 -2.57217,0 -10.16904,7.656688 -5.50325,5.503244 -10.40831,14.0572 -4.84525,8.553956 -7.89596,17.825726 -3.52926,0.897268 -8.43432,3.349801 l 0.65799,-1.6749 3.58908,-8.793228 q 3.94798,-9.750313 7.17814,-19.261355 3.23017,-9.511042 3.23017,-11.544849 0,-1.734719 -1.61509,-1.734719 -2.0338,0 -6.75942,4.845248 -4.72561,4.78543 -8.79322,11.006489 -7.05851,10.886853 -12.26267,24.106603 -0.77763,0.239271 -0.89727,0.299089 l -3.17034,1.13654 q -1.91417,0.657996 -3.94798,1.495446 1.43563,-3.050711 5.62288,-13.159932 l 4.66579,-11.24576 q 5.26398,-12.801025 5.44343,-15.971372 0.11963,-2.153443 -1.73472,-2.153443 -1.19636,0 -3.58907,1.076721 l -0.71782,-1.914172 q 5.20416,-2.033807 13.39921,-7.118326 l 1.31599,-0.837451 q 0.17945,1.375811 0.17945,2.332897 0,5.08452 -6.22105,20.218441 16.62936,-21.235344 25.7815,-21.235344 2.6918,0 2.6918,2.871258 0,4.306886 -6.0416,19.141719 6.87905,-9.032499 14.89465,-15.552647 8.07541,-6.520148 12.3823,-6.520148 2.51235,0 2.51235,2.51235 0,1.734719 -4.54616,11.425214 -10.94667,23.508424 -10.94667,27.27695 0,1.615083 1.55526,1.615083 1.13654,0 3.94798,-1.615083 z"
         id="path51" />
      <path
         style="font-size:122.507px;font-family:Vivaldi;-inkscape-font-specification:'Vivaldi, Normal';baseline-shift:baseline;display:inline;overflow:visible;vector-effect:none;fill:#f7770f;fill-rule:evenodd;enable-background:accumulate;stop-color:#000000;stop-opacity:1"
         d="M 115.76758,-0.15625 103.01953,0.14453125 90.111328,0.26367188 80.490234,0.32226563 69.607422,0.26367188 h -0.0039 C 59.719655,0.26367188 50.825945,1.534678 42.9336,4.0976562 35.039854,6.6610872 27.313317,10.803549 19.755859,16.501953 6.7375901,26.316349 0.02539063,37.760206 0.02539063,50.580078 c 0,10.275781 4.13484977,18.597979 12.20703137,24.517578 h 0.002 l 0.002,0.002 c 8.073541,5.879194 19.059212,8.748047 32.841797,8.748047 7.253637,0 14.39233,-0.953141 21.402344,-2.857422 6.687997,-1.806528 12.114288,-4.195689 16.453125,-7.125 4.042221,2.438683 8.477196,4.702966 13.371093,6.767578 5.160269,2.17699 8.662549,3.333985 11.103509,3.333985 0.86719,0 1.50899,-0.309211 2.43555,-0.761719 0.92388,-0.451198 2.04976,-1.098493 3.4043,-1.947266 l 0.006,-0.0039 6.99609,-4.304687 0.004,-0.002 c 2.79629,-1.747685 5.14083,-3.798743 7.24414,-6.007813 l -1.23242,1.964844 c -1.1407,1.81667 -1.81836,3.336362 -1.81836,4.832031 0,1.940451 0.93589,3.71632 2.53515,4.986328 l 0.01,0.0078 0.01,0.0078 c 1.60493,1.227295 3.6064,1.828125 5.83008,1.828125 4.69793,0 10.0936,-3.159615 16.61328,-9.070312 l 0.008,-0.0078 2.03125,-1.810547 c -0.005,0.145356 -0.0586,0.328603 -0.0586,0.470703 0,3.050289 0.93598,5.686706 2.82813,7.625 l 0.006,0.0059 0.006,0.0059 c 1.89411,1.894106 4.47889,2.839844 7.45704,2.839844 5.0387,0 10.14947,-2.572145 15.32031,-7.414063 l 0.002,-0.002 c 5.5037,-5.137272 8.4961,-9.771748 8.4961,-14.1875 0,-1.882879 -0.56139,-3.596936 -1.69336,-4.925781 l -1.86133,-2.1875 -0.45703,2.835938 c -0.84566,5.2661 -2.74092,9.535786 -5.67383,12.919921 -2.92801,3.339165 -6.0201,4.867188 -9.52539,4.867188 -1.90998,0 -3.32276,-0.556963 -4.51563,-1.714844 -1.13963,-1.144126 -1.69726,-2.544263 -1.69726,-4.496094 0,-3.239451 0.86748,-6.275238 2.46679,-9.203125 h 11.73047 l 2.32617,-4.505859 h -11.82617 c 2.26645,-4.407486 4.64236,-7.947241 7.11914,-10.212891 2.8555,-2.612072 5.75589,-3.824218 8.8711,-3.824218 1.05276,0 1.71107,0.200382 1.9707,0.36914 0.25963,0.168759 0.29297,0.200911 0.29297,0.638672 0,0.628997 -0.41869,2.494614 -1.35742,5.115235 l -0.52344,1.46289 4.48437,0.841797 0.95899,-2.236328 0.002,-0.0039 c 1.82374,-4.321464 3.68476,-8.462199 5.58594,-12.423828 l 0.01,-0.01953 1.25,-2.5 -1.55469,-0.427734 c -1.68228,-0.462626 -3.23021,-0.705078 -4.65821,-0.705078 -3.06163,0 -5.97109,0.810782 -8.63476,2.40039 -2.2871,1.364881 -5.60664,4.101665 -9.69922,7.78125 0.10714,-0.808835 0.39844,-1.810606 0.39844,-2.515625 0,-2.586016 -0.56325,-4.731884 -1.89844,-6.257812 -1.33519,-1.525928 -3.36288,-2.246094 -5.70898,-2.246094 -5.24523,0 -10.5555,2.489679 -15.89258,7.210938 l -0.002,0.002 -0.002,0.002 c -5.29676,4.721919 -8.16015,9.469845 -8.16015,14.269531 0,2.084146 0.62095,3.973464 1.86523,5.457031 l 2.15625,2.570313 0.18359,-3.349609 c 0.26478,-4.841656 1.92033,-9.106203 5.0293,-12.935547 l 0.002,-0.002 0.002,-0.002 c 3.11013,-3.868699 6.27021,-5.607421 9.67382,-5.607421 1.22176,0 1.86992,0.299052 2.32032,0.816406 0.4504,0.517353 0.78125,1.440847 0.78125,2.943359 0,2.421273 -0.70314,5.531494 -2.17969,9.261719 l -1.66992,4.056641 -0.004,0.0078 c -0.006,0.01394 -0.0194,0.04759 -0.0254,0.0625 H 144.2886 l -2.32617,4.505859 h 11.58398 c -2.28045,4.517804 -4.94652,8.44419 -8.17187,11.535157 -3.64922,3.49556 -6.90497,5.076172 -9.73047,5.076172 -3.80433,0 -5.84542,-1.364929 -7.00781,-4.570313 l -0.89454,-2.466797 C 128.27333,70.119849 128.88856,69.601869 129.375,69 l 0.004,-0.0039 0.002,-0.0039 c 2.45444,-3.078449 3.81836,-5.902859 3.81836,-8.601562 0,-2.540905 -0.99642,-4.733846 -2.9043,-6.054688 l -1.89258,-1.3125 -0.18164,2.296875 c -0.45951,5.78222 -2.37218,10.307053 -5.73242,13.779297 -3.36046,3.472473 -7.41018,5.158203 -12.44726,5.158203 -2.41538,10e-7 -4.90227,-0.480269 -7.48243,-1.466796 -2.53978,-0.971094 -6.525827,-3.003729 -11.732418,-5.988282 4.046342,-5.478775 6.24414,-10.732313 6.24414,-15.74414 10e-7,-4.307609 -1.329348,-8.143043 -3.804687,-11.416016 H 101.375 l 2.36328,-9.111328 H 82.810547 c 0.248479,-0.446925 0.543239,-0.844359 0.777344,-1.306641 v -0.002 l 0.002,-0.0039 C 85.347187,25.704063 87.44825,18.898893 90.085937,8.5097656 l -0.02344,0.087891 h 12.400393 l 1.96484,-0.060547 c 2.8822,0.00125 4.81227,0.3300578 5.10352,0.46875 l 0.01,0.00586 0.0117,0.00586 c 0.34699,0.1577223 0.53907,0.3663476 0.53907,1.4843754 0,0.797533 -0.25093,2.370583 -0.79492,4.509766 -9.6e-4,0.0038 -0.001,0.0041 -0.002,0.0078 l -0.71289,2.490235 h 5.02344 l 0.2793,-0.951172 c 0.10168,-0.345718 0.1787,-0.618516 0.23437,-0.830078 0.0278,-0.105782 0.0491,-0.194705 0.0684,-0.283203 0.003,-0.0148 0.004,-0.05415 0.008,-0.06641 l 1.67188,-6.2675784 v -0.00195 c 0.4263,-1.588781 1.0978,-3.7822547 2.00586,-6.546875 l 1.01953,-2.71875 z m -0.65039,2.6679688 c -0.76204,2.3506133 -1.41441,4.4355858 -1.81055,5.9121093 l -0.58203,2.1835939 c 2.5e-4,-0.0263 0.0176,-0.07949 0.0176,-0.105469 0,-1.6703456 -0.68555,-3.2504004 -2.08789,-3.892578 -1.38176,-0.6529119 -3.23498,-0.7226563 -6.23633,-0.7226563 h -0.0195 l -1.97461,0.058594 H 88.025391 l -0.501954,1.890625 -0.002,0.00781 C 84.897379,18.180946 82.730349,25.009909 81.218703,28.033201 c -3.045301,6.010733 -7.288827,10.513661 -12.802734,13.615234 -0.65886,0.370609 -1.316292,0.640704 -1.97461,0.986329 1.485046,-1.093109 2.908513,-2.337944 4.25,-3.769532 l 0.002,-0.002 0.002,-0.002 C 76.216601,32.918567 80.541545,22.51324 83.996094,7.5703125 l 0.375,-1.625 H 69.84375 c -10.766759,0 -18.886256,0.4739533 -24.457031,1.4570312 h -0.002 C 40.753302,8.2257153 36.119881,9.8786813 31.488281,12.039063 35.544476,9.7906007 39.63137,7.9559494 43.753906,6.6171875 51.332299,4.156163 59.942397,2.9147671 69.595703,2.9140625 l 10.894531,0.060547 9.640625,-0.060547 12.933591,-0.1191406 z M 69.84375,8.5976563 H 80.976562 C 77.637636,22.377248 73.481982,31.965541 68.751953,37.056641 63.619462,42.531941 57.639082,45.1875 50.521484,45.1875 c -1.445623,0 -2.978158,-0.114347 -4.597656,-0.345703 l -0.002,-0.002 -5.150391,-0.716797 -0.002,-0.002 c -1.536756,-0.207671 -3.110746,-0.310547 -4.722656,-0.310547 -1.74854,0 -3.204209,0.139114 -4.414063,0.464844 l -0.580078,0.15625 -0.263672,0.539062 c -1.09808,2.234027 -2.559385,4.363912 -4.398437,6.394531 l -2.820313,3.113282 4.095704,-0.931641 c 2.550162,-0.579582 4.924356,-0.863281 7.123046,-0.863281 4.072933,0 8.931542,0.900467 14.541016,2.74414 l 0.0059,0.002 0.0059,0.002 c 5.649948,1.804844 10.669608,4.092377 15.070312,6.857421 l 12.617188,7.929688 c -8.692776,5.607554 -18.64731,8.525391 -30.095703,8.525391 -12.157122,0 -21.272841,-2.814998 -27.542969,-8.28711 h -0.002 v -0.002 C 12.705783,64.655559 9.4355469,57.428827 9.4355469,48.425781 c 0,-6.862577 1.8172041,-13.172761 5.4824221,-19.037109 v -0.002 l 0.002,-0.002 c 3.664666,-5.902042 8.66923,-10.488982 15.095703,-13.81836 h 0.002 l 0.002,-0.002 C 35.337217,12.788309 40.610899,10.942908 45.847656,10.011719 51.123856,9.0806247 59.155831,8.5976563 69.84375,8.5976563 Z M 16.060547,23.328125 c -1.228004,1.463243 -2.367747,3.007686 -3.392578,4.658203 -3.9107685,6.258126 -5.8828128,13.106146 -5.8828128,20.439453 0,9.660131 3.6703768,17.787437 10.8652348,24.03125 5.119659,4.467245 11.873983,7.216452 20.15625,8.341797 -9.910704,-0.860672 -17.959215,-3.437825 -24.00586,-7.839844 l -0.0039,-0.002 C 6.3188127,67.471647 2.6777344,60.162311 2.6777344,50.580078 c 0,-9.990737 4.5659479,-18.992826 13.3828126,-27.251953 z m 317.009763,5.814453 -3.07226,1.955078 c -5.41771,3.360688 -9.83429,5.697609 -13.17188,7.001953 l -1.2168,0.476563 1.67383,4.460937 1.28907,-0.580078 c 1.51975,-0.683888 2.64499,-0.960937 3.04492,-0.960937 0.36157,0 0.3285,0.04539 0.32812,0.04492 -3.7e-4,-4.67e-4 0.11139,0.182479 0.082,0.710937 -0.0423,0.742505 -0.48834,2.603955 -1.38086,5.222656 -0.89282,2.619617 -2.21649,6.0667 -3.96484,10.31836 l -4.66406,11.242187 c -2.78905,6.733552 -4.66935,11.128912 -5.59766,13.101563 l -1.45508,3.091797 3.15821,-1.300782 c 1.33351,-0.549092 2.62589,-1.037415 3.875,-1.466797 l 0.008,-0.0039 3.25391,-1.166015 0.0703,-0.03516 c -0.15769,0.07884 -0.0215,0.01106 0.11133,-0.0332 0.13278,-0.04426 0.33048,-0.107545 0.58398,-0.185547 l 0.60938,-0.1875 0.23242,-0.59375 c 3.43912,-8.736162 7.48691,-16.689561 12.13867,-23.865234 l 0.002,-0.0039 c 4.8e-4,-7.31e-4 10e-4,-0.0012 0.002,-0.002 2.66715,-4.078387 5.54234,-7.675221 8.62304,-10.794922 l 0.004,-0.0039 0.002,-0.002 c 1.54203,-1.58106 2.85271,-2.748228 3.87695,-3.482422 1.02425,-0.734193 1.78197,-0.96289 1.9336,-0.96289 0.30108,0 0.27331,0.04515 0.24219,0.01172 -0.0311,-0.03343 0.0488,0.02393 0.0488,0.396484 0,0.327067 -0.23228,1.661633 -0.75976,3.546875 -0.52748,1.885242 -1.32829,4.415539 -2.40039,7.572266 -2.14492,6.31559 -4.52943,12.711651 -7.15235,19.189453 l -3.58984,8.798828 -1.92578,4.898437 3.08984,-1.544922 c 3.21414,-1.607069 5.95252,-2.688702 8.16797,-3.251953 l 0.70508,-0.177734 0.22852,-0.691406 c 2.00588,-6.096305 4.60075,-11.955925 7.7871,-17.582032 3.22465,-5.623476 6.63006,-10.214042 10.19532,-13.779296 l 0.002,-0.002 h 0.002 c 2.50595,-2.525681 4.58823,-4.405676 6.19727,-5.617187 1.57558,-1.186322 2.72981,-1.595382 2.9668,-1.613281 0.007,0.03907 -0.006,-0.03009 -0.006,0.07422 0,0.04532 -0.0608,0.382786 -0.32227,0.873047 l -0.0176,0.0293 -1.74804,3.740235 c -7.5677,15.538671 -11.72329,27.702158 -12.38477,36.714843 l -0.14453,1.97461 1.88086,-0.619141 c 5.92903,-1.949272 11.07769,-4.477916 15.43164,-7.599609 l 1.00391,-0.71875 -2.27735,-3.703125 -1.11523,0.640625 c -1.8074,1.038292 -3.15924,1.439453 -3.28907,1.439453 -0.289,0 -0.25798,-0.0469 -0.21093,0.002 0.047,0.04886 -0.0176,0.03461 -0.0176,-0.291016 0,-0.307232 0.18336,-1.32234 0.62305,-2.720703 0.43969,-1.398362 1.11321,-3.236736 2.01757,-5.490234 1.80834,-4.506024 4.5377,-10.682447 8.17969,-18.503906 l 0.002,-0.0039 c 1.52068,-3.241589 2.66512,-5.823504 3.43946,-7.769531 0.77473,-1.947026 1.23047,-3.05765 1.23047,-4.214844 0,-1.058366 -0.28448,-2.089164 -1.01563,-2.820312 -0.73115,-0.731148 -1.7639,-1.017578 -2.82226,-1.017578 -3.54015,0 -7.74163,2.395333 -13.21485,6.814453 l -0.002,0.002 -0.002,0.002 c -3.59906,2.927586 -6.95832,6.36374 -10.21094,10.029297 0.61863,-1.696191 1.51206,-3.866894 1.94922,-5.251953 1.02411,-3.244709 1.57031,-5.592365 1.57031,-7.337891 0,-1.164195 -0.28106,-2.26034 -1.03125,-3.060547 -0.75019,-0.800207 -1.85146,-1.136718 -2.98438,-1.136718 -3.56329,0 -7.44949,1.974233 -11.86523,5.611328 -3.0395,2.503532 -6.44393,6.136128 -10.02539,10.289062 2.16691,-5.908009 3.6543,-10.73776 3.6543,-13.558594 0,-0.720899 -0.0647,-1.54761 -0.18946,-2.503906 z m -60.02539,1.927734 c -7.71946,0 -15.53841,3.340363 -23.39453,9.8125 l -0.002,0.002 c -5.85088,4.8351 -10.56466,10.300553 -14.11719,16.384765 -3.55342,6.085751 -5.38672,11.854558 -5.38672,17.296875 0,3.186773 0.70724,5.785711 2.32422,7.609375 1.61698,1.823665 4.05595,2.689453 6.95703,2.689453 6.73653,0 13.88834,-3.873519 21.55664,-11.257812 l 0.002,-0.002 h 0.002 c 5.21445,-5.051498 8.06055,-9.426502 8.06054,-13.513672 0,-1.040581 -0.29818,-2.065826 -0.83789,-2.998047 l -1.1875,-2.054688 -1.12695,2.089844 c -0.28107,0.521989 -0.45713,0.853729 -0.55664,1.052735 l -1.54687,2.976562 -0.002,0.0039 c -2.40245,4.688676 -5.33969,8.419369 -8.80859,11.240235 -3.47038,2.822061 -6.70258,4.128906 -9.75195,4.128906 -1.77327,0 -2.8455,-0.444407 -3.55469,-1.216797 -0.7092,-0.77239 -1.16016,-2.046629 -1.16016,-4.037109 0,-3.265265 1.06785,-7.484113 3.29492,-12.564453 l 0.002,-0.0039 c 2.26762,-5.120747 4.9728,-9.491503 8.10547,-13.126953 h 0.002 c 3.19387,-3.719921 6.78424,-5.460937 11.07617,-5.460937 1.41074,0 2.39502,0.197599 2.84375,0.410156 0.44873,0.212557 0.37695,0.166534 0.37695,0.417969 0,0.623233 -0.60175,2.753973 -1.9707,5.726562 l -1.36328,2.896485 h 4.97461 l 9.7793,-18.238282 -2.04688,-0.140625 c -1.169,-0.08062 -1.99079,-0.123047 -2.54297,-0.123047 z m -33.08008,0.658204 c -9.3423,0 -18.70986,2.649015 -28.04492,7.884765 -8.27921,4.587067 -15.18656,10.472756 -20.68164,17.636719 -5.49508,7.123906 -8.34961,13.892592 -8.34961,20.308594 0,1.948351 0.3687,3.58574 1.33203,4.810547 0.96333,1.224806 2.50501,1.83789 4.18164,1.83789 3.74144,0 8.18009,-2.17737 13.70118,-6.236328 l 0.004,-0.0039 c 3.81124,-2.782338 7.50559,-6.232925 11.14649,-9.988281 -2.5314,6.156506 -4.2981,11.308227 -4.46094,14.597656 l -0.0898,1.78125 1.73047,-0.427735 c 7.3757,-1.823661 13.26185,-4.347565 17.64649,-7.646484 l 1.01953,-0.765625 -2.50586,-3.619141 -1.06445,0.63086 c -2.49586,1.481916 -4.33055,2.177225 -4.75196,2.210937 h 0.008 c -0.30302,0.02245 -0.24217,-0.02537 -0.17579,0.04102 0.0664,0.06639 -0.0156,0.03857 -0.0156,-0.333984 0,-0.13484 0.40204,-1.885438 1.33398,-4.328125 0.92956,-2.436415 2.34137,-5.782975 4.22266,-10.001954 l 0.01,-0.02148 c 7.5e-4,-0.0017 0.001,-0.0022 0.002,-0.0039 l 1.79297,-3.808594 -2.95117,0.996094 c -1.47279,0.497841 -2.4287,0.586419 -3.6211,0.857422 2.65596,-4.027755 4.11524,-7.775044 4.11524,-11.265625 0,-2.626815 -0.81918,-4.791571 -2.4043,-6.195313 2.91551,-0.651931 5.93183,-1.033203 9.0957,-1.033203 2.46939,0 5.02241,0.231091 7.66407,0.697266 l 0.94531,0.167968 0.45508,-0.847656 c 1.22737,-2.291099 1.95117,-3.711552 1.95117,-5.171875 0,-0.773098 -0.35141,-1.642951 -1.00977,-2.136719 -0.65835,-0.493767 -1.42672,-0.623046 -2.23047,-0.623046 z m 70.34571,0.357421 c -3.06786,0 -6.64865,0.806911 -10.81055,2.357422 h -0.002 l -0.002,0.002 c -4.12329,1.55134 -7.94905,3.534544 -11.46875,5.949219 l -0.004,0.002 -0.002,0.002 c -6.35256,4.397929 -11.50934,9.671941 -15.43554,15.806641 v 0.002 h -0.002 c -3.88747,6.097189 -5.89062,12.052519 -5.89062,17.822266 0,2.736146 0.85654,5.167096 2.55469,7.048828 l 0.006,0.0059 0.006,0.0059 c 1.73999,1.877362 4.06536,2.876953 6.65625,2.876953 5.81633,0 12.55271,-3.745617 20.55468,-10.857422 l 0.006,-0.0039 c 9.35506,-8.222561 14.26172,-16.180574 14.26172,-23.960938 0,-2.412121 -0.75144,-4.586945 -2.23242,-6.302734 -1.47145,-1.743228 -3.46212,-2.726923 -5.64844,-2.734375 1.33513,-0.152614 2.60287,-0.404297 4.04297,-0.404297 1.33263,0 3.05422,0.09614 5.14063,0.292969 l 1.00195,0.09375 0.35937,-0.941407 c 0.54165,-1.416608 0.86524,-2.423197 0.86524,-3.404296 0,-1.026871 -0.3366,-2.060466 -1.10352,-2.740235 -0.76691,-0.679768 -1.78037,-0.917969 -2.85351,-0.917969 z M 85.576172,33.181641 H 100.3125 l -0.988281,3.810546 H 89.160156 c -0.985997,-1.438839 -2.172423,-2.716491 -3.583984,-3.810546 z m -4.517578,0.296875 c 5.963266,2.868968 8.873047,7.735718 8.873047,15.425781 0,4.801009 -1.761554,9.517725 -5.265625,14.242187 -1.684961,-0.984597 -4.416753,-2.660093 -9.146485,-5.669922 -6.362011,-4.042528 -11.660135,-6.771049 -16.349609,-8.710937 3.521345,-1.300574 7.037449,-2.833687 10.544922,-4.806641 4.571816,-2.571647 8.354202,-6.092633 11.34375,-10.480468 z M 330.875,33.652344 c 8e-5,0.01529 0.004,0.04356 0.004,0.05859 0,2.849085 -1.99358,9.673843 -6.1211,19.714844 l 2.19922,1.279297 c -0.0544,0.08254 -0.11571,0.15147 -0.16992,0.234375 v 0.002 l -0.002,0.002 c -4.64611,7.166031 -8.66984,15.098855 -12.11524,23.742188 -0.0187,0.0062 -0.0507,0.01559 -0.0684,0.02148 -0.16631,0.05544 -0.21958,0.05901 -0.45703,0.177735 l 0.14649,-0.0625 -3.17188,1.136718 c -0.34325,0.1181 -0.71016,0.275942 -1.05859,0.402344 1.07329,-2.419952 2.22685,-5.048879 4.40625,-10.310547 v -0.002 l 4.66601,-11.246094 v -0.002 c 1.76097,-4.282357 3.09984,-7.766529 4.02149,-10.470703 0.92164,-2.704174 1.44189,-4.558103 1.51953,-5.929687 v -0.002 c 0.0504,-0.90717 -0.0855,-1.801249 -0.66406,-2.519531 -0.57862,-0.718281 -1.51792,-1.033203 -2.39258,-1.033203 -0.11577,0 -0.28298,0.107066 -0.40039,0.115234 2.8153,-1.345745 5.94482,-3.023841 9.6582,-5.308593 z m -57.83008,0.06836 c 0.0502,0 0.23034,0.01251 0.29297,0.01367 l -4.82617,9.003906 c 0.1468,-0.612434 0.35547,-1.266497 0.35547,-1.789062 0,-1.184194 -0.82788,-2.307243 -1.89453,-2.8125 -1.06666,-0.505258 -2.35849,-0.666016 -3.97852,-0.666016 -1.84134,0 -3.57326,0.392893 -5.24609,0.970703 5.24327,-3.122774 10.33977,-4.720703 15.29687,-4.720703 z m 102.64649,0.238281 c 0.61653,0 0.84096,0.133933 0.94726,0.240235 0.1063,0.106301 0.24024,0.330732 0.24024,0.947265 0,-7.14e-4 -0.30232,1.372997 -1.04297,3.234375 -0.74066,1.861379 -1.86998,4.412508 -3.37891,7.628907 v 0.002 c -3.65461,7.848427 -6.39812,14.055304 -8.23828,18.640625 -0.92008,2.29266 -1.61536,4.178836 -2.08789,5.68164 -0.47253,1.502805 -0.74414,2.566683 -0.74414,3.515625 0,0.751095 0.19235,1.543644 0.75781,2.13086 0.56396,0.585651 1.36908,0.805456 2.11524,0.80664 -2.5837,1.472915 -5.39626,2.795342 -8.49219,3.931641 1.06185,-8.235742 4.87755,-19.385717 11.78515,-33.566406 l 0.004,-0.0098 1.73828,-3.716797 -0.0312,0.06055 c 0.37658,-0.706096 0.63477,-1.36689 0.63477,-2.119141 0,-0.671844 -0.14289,-1.380375 -0.64063,-1.949218 -0.49773,-0.568843 -1.2702,-0.810547 -1.9414,-0.810547 -0.47799,0 -0.93538,0.212562 -1.39649,0.36914 4.32935,-3.212658 7.85142,-5.017578 9.77149,-5.017578 z m -23.92579,0.06055 c 0.66163,0 0.90371,0.141949 1.05079,0.298828 0.14707,0.156879 0.31445,0.49807 0.31445,1.248047 0,1.125732 -0.45946,3.403199 -1.44922,6.539063 -0.98976,3.135864 -2.48872,7.177368 -4.49414,12.101562 l 2.04297,1.167969 c -1.23008,1.79665 -2.46614,3.563131 -3.64063,5.611328 l -0.002,0.0039 -0.002,0.002 c -3.16788,5.592673 -5.74265,11.425853 -7.77539,17.47461 -1.47728,0.414901 -3.27861,1.235958 -5.03125,1.996094 l 3.10547,-7.609375 v -0.002 c 2.64106,-6.522615 5.04311,-12.968184 7.20507,-19.333984 1.08135,-3.183968 1.89412,-5.747896 2.44336,-7.710937 0.54925,-1.963042 0.85742,-3.230962 0.85742,-4.259766 0,-0.783922 -0.19027,-1.591454 -0.75976,-2.203125 -0.56949,-0.611671 -1.406,-0.857422 -2.18164,-0.857422 -0.56197,0 -1.08755,0.149119 -1.61524,0.373047 4.05649,-3.28657 7.44881,-4.839844 9.93164,-4.839844 z M 239.96484,34.37891 c 0.47237,0 0.66093,0.108975 0.64063,0.09375 -0.0203,-0.01522 -0.0508,-0.168362 -0.0508,0.01563 0,0.108151 -0.59271,1.607479 -1.31446,3.144531 -2.39738,-0.370005 -4.76409,-0.640625 -7.05078,-0.640625 -5.03659,0 -9.73366,1.015353 -14.22656,2.601563 7.39118,-3.421992 14.71703,-5.214844 22.00195,-5.214844 z m -78.24218,0.119141 c 1.84115,0 2.95445,0.47501 3.71289,1.341797 0.75844,0.866786 1.24218,2.312306 1.24218,4.511718 0,1.41841 -0.29294,3.316814 -0.91211,5.638672 l -1.18945,4.460938 2.32031,-2.164063 c -1.94543,2.531763 -3.81358,5.421342 -5.53515,9.087891 l -0.88672,1.888672 h 0.0449 c -2.00952,3.456564 -3.05273,7.168203 -3.05273,11.05664 0,2.509348 0.83673,4.735171 2.48242,6.38086 l 0.006,0.0059 0.006,0.0059 c 1.67752,1.630929 3.89465,2.46875 6.36914,2.46875 2.04477,0 3.99311,-0.486089 5.83789,-1.365235 -3.70886,2.784417 -7.19569,4.158203 -10.44531,4.158203 -2.44163,0 -4.19921,-0.688797 -5.57422,-2.060547 -1.37382,-1.410646 -2.07227,-3.236687 -2.07227,-5.765625 0,-0.990363 0.14403,-2.176426 0.44727,-3.541015 l 0.91211,-4.109375 -3.10157,2.84375 c -0.4477,0.410401 -0.58764,0.531735 -0.76562,0.707031 l -2.20117,1.964844 c 2.95222,-3.346389 5.5812,-7.130025 7.64062,-11.673828 l 0.48828,-1.076172 h 0.0996 l 0.33399,-0.833985 c 0.15736,-0.393397 0.27377,-0.685398 0.35351,-0.884765 l 0.006,-0.01172 1.67188,-4.064453 0.004,-0.0078 c 1.55423,-3.926462 2.36524,-7.315823 2.36524,-10.238281 0,-1.887167 -0.40654,-3.506107 -1.43164,-4.683594 -1.02511,-1.177486 -2.59105,-1.726562 -4.32032,-1.726562 -1.77924,0 -3.47886,0.485603 -5.125,1.244141 3.59338,-2.39536 7.01283,-3.558594 10.26954,-3.558594 z m 148.58789,0.240234 c 0.68151,0 0.98529,0.150183 1.0957,0.248047 0.11041,0.09786 0.21094,0.229419 0.21094,0.757813 0,0.135568 -0.25262,0.92852 -0.4336,1.548828 -1.58754,-0.128116 -3.12362,-0.242188 -4.2832,-0.242188 -4.34755,0 -8.21906,0.880155 -11.80469,2.248047 1.7151,-0.873914 3.48314,-1.676034 5.33008,-2.371094 l 0.004,-0.002 c 3.97134,-1.479121 7.28693,-2.1875 9.88086,-2.1875 z m -123.04493,0.597656 c 0.66452,0 1.53729,0.217776 2.3379,0.359375 -1.38031,2.891444 -2.72254,5.951601 -4.06055,9.027344 0.0537,-0.372398 0.17773,-0.81435 0.17773,-1.140625 0,-1.117504 -0.56522,-2.252454 -1.50195,-2.861328 -0.93673,-0.608874 -2.07411,-0.798828 -3.41406,-0.798828 -2.15159,0 -4.22298,0.549548 -6.20899,1.509766 2.21377,-1.843531 4.10059,-3.299287 5.39258,-4.070313 2.28128,-1.361407 4.67622,-2.025391 7.27734,-2.025391 z m 115.2129,4.808594 c -3.07011,0.110976 -6.15739,1.621111 -9.25586,4.357422 -3.22047,2.844052 -5.05469,5.748332 -5.05469,8.769531 0,0.745452 0.12155,1.542804 0.33984,2.416016 l 0.91797,3.675781 L 291,55.916016 c 1.41762,-3.107109 2.85681,-5.38416 4.22266,-6.8125 1.36585,-1.42834 2.56934,-1.984375 3.72265,-1.984375 0.49459,0 0.80136,0.138488 1.26172,0.771484 l 0.0195,0.02734 0.0215,0.02734 c 0.47724,0.589535 0.72265,1.28145 0.72265,2.275391 0,5.142613 -2.35327,10.987283 -7.27148,17.505859 -4.9191,6.519754 -9.26133,9.462891 -12.69922,9.462891 -1.43517,0 -2.45699,-0.44366 -3.38086,-1.423828 -0.88496,-1.020258 -1.33594,-2.259977 -1.33594,-3.951172 0,-2.551649 0.70977,-5.87266 2.19141,-9.888672 l 0.002,-0.002 v -0.002 c 1.48169,-4.05513 3.2871,-7.621072 5.40821,-10.707031 l 0.002,-0.0039 c 4.52927,-6.533208 10.70224,-10.07255 18.5918,-11.066406 z M 91.263672,41.34375 c 2.090271,2.784933 3.154297,5.962887 3.154297,9.714844 0,4.58187 -2.10338,9.695123 -6.535157,15.332031 l -0.921875,1.171875 2.365235,1.445312 0.01563,0.0078 c 5.37183,3.086798 9.421366,5.160995 12.269528,6.25 2.84334,1.087159 5.66085,1.642578 8.42969,1.642578 2.67823,0 5.16885,-0.488748 7.4707,-1.386719 l -5.6582,3.482422 -0.004,0.002 c -1.31205,0.822476 -2.37975,1.431464 -3.16797,1.816407 -0.78821,0.384942 -1.38293,0.49414 -1.27344,0.49414 -1.46711,0 -5.02361,-0.995101 -10.072258,-3.125 -5.050123,-2.130521 -9.614896,-4.454569 -13.697265,-6.966797 l -0.748047,-0.458984 -0.714844,0.507812 c -3.752037,2.665 -8.792399,4.848985 -14.839844,6.625 4.627415,-1.645812 9.035332,-3.761792 13.082032,-6.615234 l 1.77539,-1.251953 -1.927734,-1.005859 c -0.452201,-0.235932 -0.798763,-0.422776 -1.027344,-0.550782 -0.103284,-0.05784 -0.173838,-0.09837 -0.220703,-0.126953 L 78.990153,68.32035 65.822185,60.04496 C 61.21314,57.148923 55.989114,54.773645 50.158203,52.910156 44.362403,51.005243 39.250147,50.03125 34.789062,50.03125 c -1.380204,0 -2.911999,0.328452 -4.384765,0.529297 0.8999,-1.220048 1.701506,-2.474568 2.382812,-3.771485 0.841423,-0.182785 1.85835,-0.328124 3.259766,-0.328125 1.496617,0 2.948849,0.0965 4.361328,0.28711 l 5.144531,0.71875 -0.0039,-0.002 c 1.730304,0.247186 3.387507,0.373047 4.972656,0.373047 1.685212,0 3.303447,-0.209134 4.894532,-0.492188 -0.04818,0.01519 -0.09635,0.03963 -0.144532,0.05469 l -3.857422,1.205078 3.820313,1.314453 c 4.940973,1.698459 11.25825,4.962557 18.863281,9.794922 5.267634,3.352106 8.660807,5.457598 10.28711,6.375 l 0.986328,0.55664 0.703125,-0.886718 c 4.28728,-5.400325 6.509765,-11.056697 6.509765,-16.855469 0,-2.809798 -0.539377,-5.270198 -1.320312,-7.560547 z m 128.781248,0.320312 c -1.48104,6.319609 -4.05068,12.444329 -7.87305,18.365235 -2.89492,4.459361 -6.17255,8.378951 -9.83593,11.769531 -3.65911,3.346367 -6.47964,4.792969 -7.71289,4.792969 -0.87688,0 -1.24241,-0.20035 -1.58008,-0.658203 -0.33767,-0.457854 -0.62305,-1.370518 -0.62305,-2.802735 0,-6.400659 3.02122,-12.953997 9.33399,-19.734375 h 0.002 c 5.44643,-5.867287 11.56958,-9.621784 18.28906,-11.732422 z m 82.78906,1.089844 c 1.46942,0 2.5778,0.524762 3.65235,1.800781 l 0.004,0.0059 0.006,0.0078 c 1.06741,1.23419 1.5918,2.684556 1.5918,4.576172 0,6.654137 -4.30197,14.008206 -13.36719,21.97461 l -0.002,0.002 -0.004,0.002 c -0.45241,0.402143 -0.85206,0.671256 -1.29492,1.048828 0.79582,-0.916943 1.58696,-1.774715 2.39649,-2.847656 5.13119,-6.800869 7.80468,-13.159882 7.80468,-19.103516 0,-1.464207 -0.43139,-2.829658 -1.29297,-3.910156 -0.81606,-1.108162 -2.05259,-1.841797 -3.38281,-1.841797 -0.55007,0 -1.06339,0.254951 -1.59375,0.400391 1.96371,-1.277828 3.82766,-2.115235 5.48242,-2.115235 z m -80.57617,1.041016 c 0.37043,0.760558 0.58985,1.7299 0.58985,3.076172 0,3.421834 -1.77514,7.630804 -5.58204,12.52539 l -1.85742,2.386719 0.0527,-0.0039 c -2.32009,2.679361 -4.66278,5.204473 -7.04102,7.453125 2.12739,-2.41149 4.1553,-4.952974 5.97852,-7.761719 v -0.002 l 0.002,-0.002 c 3.66656,-5.679563 6.24961,-11.582244 7.85742,-17.671875 z m 26.4668,1.679687 c -2.79231,3.531893 -5.28353,7.521577 -7.33984,12.166016 v 0.002 l -0.002,0.002 c -2.31775,5.286096 -3.52148,9.800647 -3.52148,13.632813 0,2.396164 0.5547,4.409146 1.85937,5.830078 1.30468,1.420932 3.25334,2.074219 5.50782,2.074219 2.96949,0 5.94465,-1.27288 8.9082,-3.171875 -5.40074,4.159628 -10.32757,6.205078 -14.71094,6.205078 -2.40277,0 -3.93967,-0.631599 -4.97461,-1.798828 -1.03494,-1.16723 -1.65429,-3.054595 -1.6543,-5.84961 0,-4.846357 1.638,-10.16287 5.02344,-15.960937 2.80434,-4.80282 6.56152,-9.113644 10.9043,-13.13086 z m 35.83594,0.996094 c -0.96924,1.05213 -2.00357,2.005198 -2.85547,3.234375 l -0.002,0.002 v 0.002 c -2.26449,3.293816 -4.16826,7.064646 -5.71679,11.302735 -1.54807,4.197056 -2.35352,7.77245 -2.35352,10.802734 0,2.206526 0.66652,4.190308 2.00391,5.71875 l 0.0137,0.01758 0.0156,0.01563 c 1.38495,1.480468 3.26803,2.273438 5.33398,2.273438 0.43489,0 0.87,-0.186944 1.30469,-0.246094 -2.36652,1.053262 -4.55175,1.722656 -6.38867,1.722656 -1.95161,0 -3.41412,-0.634244 -4.70313,-2.021484 -1.24961,-1.387261 -1.86719,-3.059684 -1.86719,-5.265625 0,-5.156287 1.78421,-10.608777 5.47266,-16.394531 l 0.002,-0.002 c 2.64745,-4.136147 5.91007,-7.840962 9.74024,-11.162109 z m -142.1543,0.535156 c -0.55879,0.98533 -1.05543,1.995077 -1.46875,3.035157 0.3348,-0.989239 0.82471,-2.000577 1.46875,-3.035157 z m -1.5625,3.248047 c -0.0512,0.132464 -0.0742,0.274887 -0.12305,0.408203 0.0377,-0.135728 0.0796,-0.271594 0.12305,-0.408203 z m 58.24219,2.230469 c -6.07696,6.809012 -9.31836,13.711415 -9.31836,20.646484 0,1.75807 0.30382,3.239663 1.14258,4.376953 0.83875,1.137291 2.23692,1.734375 3.71289,1.734375 0.15627,0 0.32103,-0.06934 0.47851,-0.08203 -2.69906,1.441358 -5.07477,2.396485 -6.69922,2.396485 -1.11487,0 -1.66719,-0.276381 -2.09961,-0.826172 -0.43242,-0.549791 -0.76171,-1.571033 -0.76171,-3.171875 0,-5.62665 2.52783,-11.858641 7.79882,-18.691407 l 0.002,-0.002 v -0.002 c 1.74803,-2.278922 3.70012,-4.370568 5.74414,-6.378906 z m -68.76953,6.634766 c 0.0837,0.413236 0.23242,0.750084 0.23242,1.271484 0,1.767698 -0.98901,4.125638 -3.24024,6.949219 -0.097,0.120007 -0.22899,0.219117 -0.32812,0.33789 1.62024,-2.495339 2.70353,-5.377561 3.33594,-8.558593 z m 92.82617,1.30664 c -1.52244,3.456391 -2.86305,6.57689 -3.69141,8.748047 -0.96228,2.522196 -1.50781,3.972648 -1.50781,5.273438 0,0.78392 0.18627,1.604238 0.79101,2.208984 0.56687,0.566864 1.36266,0.737929 2.09766,0.712891 -2.6267,1.271776 -5.64824,2.387582 -9.07031,3.341796 0.69606,-3.895216 2.83678,-10.012244 6.67578,-18.330078 l -1.17969,-0.751953 1.16406,-0.09766 c 1.32056,-0.110046 3.07918,-0.666834 4.72071,-1.105469 z m 42.26953,3.105469 c -0.58761,1.271584 -1.4354,2.654251 -2.65234,4.181641 0.94044,-1.310338 1.8314,-2.69309 2.65234,-4.181641 z m -82.94727,1.871094 c -0.0459,0.145888 -0.10604,0.29635 -0.16015,0.445312 0.057,-0.145732 0.10527,-0.297944 0.16015,-0.445312 z m -54.91992,11.248047 c 1.8048,2.40666 4.62443,3.728515 8.09766,3.728515 1.33308,0 2.67492,-0.340689 4.02148,-0.832031 -2.69153,1.560126 -5.00874,2.367187 -6.83203,2.367187 -1.75756,10e-7 -3.10255,-0.433291 -4.20703,-1.273437 -1.10672,-0.881277 -1.52734,-1.736916 -1.52734,-2.904297 0,-0.183383 0.36003,-0.779667 0.44726,-1.085937 z"
         id="path52" />
    </g>
  </g>
</svg>
